<svg width="72" height="72" viewBox="0 0 29 29" fill="none" xmlns="http://www.w3.org/2000/svg" shape-rendering="crispEdges">
  <path d="M0 0h7v1h-7ZM8 0h1v1h-1ZM10 0h2v1h-2ZM15 0h2v1h-2ZM18 0h1v1h-1ZM22 0h7v1h-7ZM0 1h1v1h-1ZM6 1h1v1h-1ZM10 1h2v1h-2ZM13 1h2v1h-2ZM16 1h1v1h-1ZM20 1h1v1h-1ZM22 1h1v1h-1ZM28 1h1v1h-1ZM0 2h1v1h-1ZM2 2h3v1h-3ZM6 2h1v1h-1ZM8 2h1v1h-1ZM10 2h3v1h-3ZM14 2h4v1h-4ZM19 2h2v1h-2ZM22 2h1v1h-1ZM24 2h3v1h-3ZM28 2h1v1h-1ZM0 3h1v1h-1ZM2 3h3v1h-3ZM6 3h1v1h-1ZM9 3h1v1h-1ZM14 3h1v1h-1ZM17 3h2v1h-2ZM22 3h1v1h-1ZM24 3h3v1h-3ZM28 3h1v1h-1ZM0 4h1v1h-1ZM2 4h3v1h-3ZM6 4h1v1h-1ZM10 4h6v1h-6ZM18 4h1v1h-1ZM22 4h1v1h-1ZM24 4h3v1h-3ZM28 4h1v1h-1ZM0 5h1v1h-1ZM6 5h1v1h-1ZM8 5h1v1h-1ZM10 5h3v1h-3ZM15 5h1v1h-1ZM18 5h1v1h-1ZM20 5h1v1h-1ZM22 5h1v1h-1ZM28 5h1v1h-1ZM0 6h7v1h-7ZM8 6h1v1h-1ZM10 6h1v1h-1ZM12 6h1v1h-1ZM14 6h1v1h-1ZM16 6h1v1h-1ZM18 6h1v1h-1ZM20 6h1v1h-1ZM22 6h7v1h-7ZM10 7h1v1h-1ZM12 7h1v1h-1ZM14 7h3v1h-3ZM20 7h1v1h-1ZM0 8h1v1h-1ZM2 8h1v1h-1ZM6 8h2v1h-2ZM13 8h2v1h-2ZM18 8h1v1h-1ZM20 8h1v1h-1ZM23 8h1v1h-1ZM26 8h1v1h-1ZM28 8h1v1h-1ZM2 9h1v1h-1ZM7 9h2v1h-2ZM11 9h4v1h-4ZM17 9h1v1h-1ZM19 9h2v1h-2ZM22 9h2v1h-2ZM25 9h2v1h-2ZM28 9h1v1h-1ZM0 10h2v1h-2ZM3 10h1v1h-1ZM6 10h1v1h-1ZM8 10h3v1h-3ZM12 10h1v1h-1ZM15 10h1v1h-1ZM19 10h1v1h-1ZM24 10h3v1h-3ZM28 10h1v1h-1ZM2 11h1v1h-1ZM4 11h2v1h-2ZM8 11h1v1h-1ZM11 11h1v1h-1ZM13 11h1v1h-1ZM19 11h2v1h-2ZM23 11h1v1h-1ZM25 11h1v1h-1ZM27 11h1v1h-1ZM0 12h1v1h-1ZM2 12h1v1h-1ZM4 12h1v1h-1ZM6 12h4v1h-4ZM13 12h1v1h-1ZM15 12h2v1h-2ZM19 12h5v1h-5ZM27 12h1v1h-1ZM2 13h2v1h-2ZM5 13h1v1h-1ZM10 13h2v1h-2ZM16 13h1v1h-1ZM19 13h5v1h-5ZM25 13h1v1h-1ZM28 13h1v1h-1ZM0 14h2v1h-2ZM3 14h4v1h-4ZM8 14h2v1h-2ZM11 14h4v1h-4ZM16 14h1v1h-1ZM18 14h4v1h-4ZM24 14h3v1h-3ZM28 14h1v1h-1ZM0 15h2v1h-2ZM3 15h1v1h-1ZM9 15h1v1h-1ZM12 15h1v1h-1ZM14 15h3v1h-3ZM18 15h1v1h-1ZM21 15h1v1h-1ZM23 15h1v1h-1ZM25 15h1v1h-1ZM27 15h1v1h-1ZM1 16h4v1h-4ZM6 16h1v1h-1ZM8 16h2v1h-2ZM11 16h1v1h-1ZM13 16h2v1h-2ZM19 16h5v1h-5ZM25 16h1v1h-1ZM27 16h2v1h-2ZM1 17h1v1h-1ZM3 17h2v1h-2ZM10 17h1v1h-1ZM13 17h2v1h-2ZM17 17h1v1h-1ZM20 17h4v1h-4ZM25 17h2v1h-2ZM28 17h1v1h-1ZM0 18h4v1h-4ZM6 18h2v1h-2ZM9 18h4v1h-4ZM15 18h1v1h-1ZM19 18h1v1h-1ZM21 18h1v1h-1ZM24 18h1v1h-1ZM28 18h1v1h-1ZM2 19h2v1h-2ZM10 19h1v1h-1ZM12 19h2v1h-2ZM18 19h4v1h-4ZM23 19h2v1h-2ZM27 19h1v1h-1ZM0 20h2v1h-2ZM3 20h2v1h-2ZM6 20h1v1h-1ZM8 20h3v1h-3ZM13 20h1v1h-1ZM15 20h2v1h-2ZM19 20h6v1h-6ZM8 21h1v1h-1ZM16 21h2v1h-2ZM19 21h2v1h-2ZM24 21h1v1h-1ZM26 21h1v1h-1ZM28 21h1v1h-1ZM0 22h7v1h-7ZM8 22h1v1h-1ZM11 22h4v1h-4ZM16 22h2v1h-2ZM20 22h1v1h-1ZM22 22h1v1h-1ZM24 22h2v1h-2ZM28 22h1v1h-1ZM0 23h1v1h-1ZM6 23h1v1h-1ZM9 23h1v1h-1ZM12 23h1v1h-1ZM14 23h3v1h-3ZM18 23h1v1h-1ZM20 23h1v1h-1ZM24 23h2v1h-2ZM0 24h1v1h-1ZM2 24h3v1h-3ZM6 24h1v1h-1ZM9 24h6v1h-6ZM17 24h9v1h-9ZM0 25h1v1h-1ZM2 25h3v1h-3ZM6 25h1v1h-1ZM10 25h1v1h-1ZM14 25h1v1h-1ZM17 25h1v1h-1ZM19 25h1v1h-1ZM24 25h1v1h-1ZM26 25h2v1h-2ZM0 26h1v1h-1ZM2 26h3v1h-3ZM6 26h1v1h-1ZM8 26h3v1h-3ZM13 26h3v1h-3ZM19 26h2v1h-2ZM24 26h2v1h-2ZM27 26h2v1h-2ZM0 27h1v1h-1ZM6 27h1v1h-1ZM9 27h1v1h-1ZM11 27h3v1h-3ZM17 27h1v1h-1ZM19 27h2v1h-2ZM23 27h1v1h-1ZM25 27h1v1h-1ZM0 28h7v1h-7ZM8 28h2v1h-2ZM15 28h3v1h-3ZM19 28h2v1h-2ZM22 28h4v1h-4ZM28 28h1v1h-1Z" fill="#F2F7F5"/>
</svg>
